<?xml version="1.0" standalone="no"?>
<!DOCTYPE svg PUBLIC "-//W3C//DTD SVG 20010904//EN"
 "http://www.w3.org/TR/2001/REC-SVG-20010904/DTD/svg10.dtd">
<svg version="1.0" xmlns="http://www.w3.org/2000/svg"
 width="512.000000pt" height="512.000000pt" viewBox="0 0 512.000000 512.000000"
 preserveAspectRatio="xMidYMid meet">

<g transform="translate(0.000000,512.000000) scale(0.100000,-0.100000)"
fill="#020617" stroke="none">
<path d="M2356 4560 c-382 -44 -754 -200 -1056 -443 -931 -749 -1004 -2132
-157 -2979 601 -601 1521 -757 2286 -388 610 295 1022 860 1115 1529 21 144
21 407 0 553 -121 884 -788 1567 -1674 1713 -114 19 -404 27 -514 15z m590
-1319 c21 -16 166 -156 320 -312 237 -239 284 -291 295 -326 24 -84 17 -94
-304 -425 -161 -165 -304 -306 -319 -314 -15 -8 -46 -14 -70 -14 -104 0 -183
112 -144 203 9 22 76 100 162 187 l147 150 -672 0 c-735 0 -713 -2 -764 59
-58 69 -58 153 0 222 51 61 30 59 760 59 l667 0 -156 158 c-116 117 -157 165
-163 190 -30 139 128 247 241 163z"/>
</g>
</svg>
